<svg width="100" height="100" viewBox="0 0 100 100" fill="none" xmlns="http://www.w3.org/2000/svg">
<path d="M5.5 32.545L35.8907 50.6715V81.701L5.5 63.7208V32.545ZM31.6589 54.9861C31.6589 53.8136 31.3444 52.729 30.8096 51.9228C30.2771 51.1203 29.4859 50.5444 28.543 50.5444C27.6 50.5444 26.8088 51.1203 26.2764 51.9228C25.7416 52.729 25.4271 53.8136 25.4271 54.9861C25.4271 56.1586 25.7416 57.2432 26.2764 58.0494C26.8088 58.8519 27.6 59.4278 28.543 59.4278C29.4859 59.4278 30.2771 58.8519 30.8096 58.0494C31.3444 57.2432 31.6589 56.1586 31.6589 54.9861ZM15.9636 60.2417C15.9636 59.0691 15.6491 57.9845 15.1142 57.1784C14.5818 56.3759 13.7906 55.8 12.8477 55.8C11.9047 55.8 11.1135 56.3759 10.5811 57.1784C10.0462 57.9845 9.73178 59.0691 9.73178 60.2417C9.73178 61.4142 10.0462 62.4988 10.5811 63.305C11.1135 64.1075 11.9047 64.6833 12.8477 64.6833C13.7906 64.6833 14.5818 64.1075 15.1142 63.305C15.6491 62.4988 15.9636 61.4142 15.9636 60.2417ZM72.5131 32.545V63.7208L42.1224 81.701V50.6715L72.5131 32.545ZM46.3542 69.4389C46.3542 70.6114 46.6687 71.696 47.2035 72.5022C47.736 73.3047 48.5272 73.8806 49.4701 73.8806C50.413 73.8806 51.2042 73.3047 51.7367 72.5022C52.2715 71.696 52.586 70.6114 52.586 69.4389C52.586 68.2664 52.2715 67.1818 51.7367 66.3756C51.2042 65.5731 50.413 64.9972 49.4701 64.9972C48.5272 64.9972 47.736 65.5731 47.2035 66.3756C46.6687 67.1818 46.3542 68.2664 46.3542 69.4389ZM46.3542 54.9861C46.3542 56.1586 46.6687 57.2432 47.2035 58.0494C47.736 58.8519 48.5272 59.4278 49.4701 59.4278C50.413 59.4278 51.2042 58.8519 51.7367 58.0494C52.2715 57.2432 52.586 56.1586 52.586 54.9861C52.586 53.8136 52.2715 52.729 51.7367 51.9228C51.2042 51.1203 50.413 50.5444 49.4701 50.5444C48.5272 50.5444 47.736 51.1203 47.2035 51.9228C46.6687 52.729 46.3542 53.8136 46.3542 54.9861ZM62.0495 60.2417C62.0495 61.4142 62.364 62.4988 62.8989 63.305C63.4313 64.1075 64.2225 64.6833 65.1654 64.6833C66.1084 64.6833 66.8996 64.1075 67.432 63.305C67.9669 62.4988 68.2813 61.4142 68.2813 60.2417C68.2813 59.0691 67.9669 57.9845 67.432 57.1784C66.8996 56.3759 66.1084 55.8 65.1654 55.8C64.2225 55.8 63.4313 56.3759 62.8989 57.1784C62.364 57.9845 62.0495 59.0691 62.0495 60.2417ZM62.0495 45.7889C62.0495 46.9614 62.364 48.046 62.8989 48.8522C63.4313 49.6547 64.2225 50.2306 65.1654 50.2306C66.1084 50.2306 66.8996 49.6547 67.432 48.8522C67.9669 48.046 68.2813 46.9614 68.2813 45.7889C68.2813 44.6164 67.9669 43.5318 67.432 42.7256C66.8996 41.9231 66.1084 41.3472 65.1654 41.3472C64.2225 41.3472 63.4313 41.9231 62.8989 42.7256C62.364 43.5318 62.0495 44.6164 62.0495 45.7889ZM69.4082 27.3944L39.0065 45.2094L8.60486 27.3944L39.0065 9.57952L69.4082 27.3944ZM34.5827 26.0806C34.5827 27.0247 35.1542 27.8189 35.9541 28.3544C36.7573 28.8921 37.838 29.2083 39.0065 29.2083C40.1751 29.2083 41.2558 28.8921 42.059 28.3544C42.8588 27.8189 43.4304 27.0247 43.4304 26.0806C43.4304 25.1365 42.8588 24.3423 42.059 23.8067C41.2558 23.269 40.1751 22.9528 39.0065 22.9528C37.838 22.9528 36.7573 23.269 35.9541 23.8067C35.1542 24.3423 34.5827 25.1365 34.5827 26.0806Z" fill="#E4E4E4" stroke="#CFCFCF"/>
<path fill-rule="evenodd" clip-rule="evenodd" d="M89.281 84.7906C90.1279 85.3309 91.1777 85.5547 92.2393 85.336C94.403 84.8902 95.7956 82.7748 95.3498 80.6111L94.1374 74.7262C93.6916 72.5625 91.5762 71.1699 89.4125 71.6157L84.2943 72.6702C82.1306 73.116 80.738 75.2314 81.1838 77.395C81.4026 78.4572 82.0237 79.3335 82.8554 79.8977C80.6527 81.9164 77.7354 83.1521 74.5377 83.179C69.0003 83.2256 64.2425 79.6337 62.5565 74.5767C61.8578 72.4809 59.5925 71.3484 57.4967 72.0471C55.401 72.7458 54.2685 75.0112 54.9672 77.1069C57.7087 85.3299 65.4706 91.2556 74.6051 91.1787C80.3924 91.13 85.5883 88.6814 89.281 84.7906Z" fill="#E4E4E4"/>
<path d="M92.2393 85.336L92.542 86.8051L92.542 86.8051L92.2393 85.336ZM89.281 84.7906L90.0878 83.5261C89.4822 83.1397 88.6876 83.2369 88.1931 83.758L89.281 84.7906ZM95.3498 80.6111L93.8807 80.9138L93.8807 80.9138L95.3498 80.6111ZM94.1374 74.7262L92.6682 75.0289L92.6682 75.0289L94.1374 74.7262ZM89.4125 71.6157L89.7152 73.0848L89.7152 73.0848L89.4125 71.6157ZM84.2943 72.6702L83.9916 71.201L84.2943 72.6702ZM81.1838 77.395L82.6529 77.0924L82.6529 77.0924L81.1838 77.395ZM82.8554 79.8977L83.8689 81.0036C84.207 80.6937 84.3848 80.2461 84.3514 79.7886C84.318 79.3311 84.0772 78.914 83.6976 78.6565L82.8554 79.8977ZM74.5377 83.179L74.5251 81.6791L74.5251 81.6791L74.5377 83.179ZM62.5565 74.5767L61.1335 75.0511L61.1335 75.0511L62.5565 74.5767ZM57.4967 72.0471L57.9712 73.4701L57.9712 73.4701L57.4967 72.0471ZM54.9672 77.1069L56.3902 76.6325L56.3902 76.6325L54.9672 77.1069ZM74.6051 91.1787L74.6177 92.6787L74.6177 92.6787L74.6051 91.1787ZM91.9366 83.8668C91.2726 84.0036 90.6188 83.8648 90.0878 83.5261L88.4743 86.0552C89.6369 86.7969 91.0829 87.1057 92.542 86.8051L91.9366 83.8668ZM93.8807 80.9138C94.1593 82.2661 93.2889 83.5882 91.9366 83.8668L92.542 86.8051C95.517 86.1922 97.4319 83.2835 96.819 80.3084L93.8807 80.9138ZM92.6682 75.0289L93.8807 80.9138L96.819 80.3084L95.6065 74.4235L92.6682 75.0289ZM89.7152 73.0848C91.0675 72.8062 92.3896 73.6766 92.6682 75.0289L95.6065 74.4235C94.9936 71.4485 92.0849 69.5336 89.1098 70.1465L89.7152 73.0848ZM84.597 74.1393L89.7152 73.0848L89.1098 70.1465L83.9916 71.201L84.597 74.1393ZM82.6529 77.0924C82.3743 75.74 83.2447 74.4179 84.597 74.1393L83.9916 71.201C81.0165 71.814 79.1017 74.7227 79.7146 77.6977L82.6529 77.0924ZM83.6976 78.6565C83.176 78.3026 82.7898 77.7567 82.6529 77.0924L79.7146 77.6977C80.0154 79.1576 80.8714 80.3643 82.0132 81.139L83.6976 78.6565ZM74.5503 84.6789C78.1341 84.6488 81.4042 83.2624 83.8689 81.0036L81.8419 78.7919C79.9013 80.5704 77.3368 81.6554 74.5251 81.6791L74.5503 84.6789ZM61.1335 75.0511C63.0178 80.703 68.3398 84.7312 74.5503 84.6789L74.5251 81.6791C69.6608 81.72 65.4672 78.5644 63.9795 74.1023L61.1335 75.0511ZM57.9712 73.4701C59.281 73.0334 60.6968 73.7413 61.1335 75.0511L63.9795 74.1023C63.0188 71.2206 59.904 69.6634 57.0223 70.6241L57.9712 73.4701ZM56.3902 76.6325C55.9535 75.3227 56.6613 73.9068 57.9712 73.4701L57.0223 70.6241C54.1407 71.5848 52.5835 74.6997 53.5442 77.5813L56.3902 76.6325ZM74.5924 89.6788C66.1333 89.75 58.934 84.2627 56.3902 76.6325L53.5442 77.5813C56.4833 86.3971 64.808 92.7612 74.6177 92.6787L74.5924 89.6788ZM88.1931 83.758C84.7677 87.367 79.9545 89.6336 74.5924 89.6788L74.6177 92.6787C80.8302 92.6264 86.4089 89.9957 90.369 85.8232L88.1931 83.758Z" fill="#308BDC"/>
<path fill-rule="evenodd" clip-rule="evenodd" d="M60.9129 54.2568C60.0661 53.7166 59.0162 53.4928 57.9547 53.7115C55.791 54.1573 54.3983 56.2727 54.8441 58.4364L56.0566 64.3213C56.5023 66.4849 58.6177 67.8776 60.7814 67.4318L65.8996 66.3773C68.0633 65.9315 69.456 63.8161 69.0102 61.6524C68.7914 60.5903 68.1702 59.714 67.3385 59.1497C69.5412 57.1311 72.4585 55.8954 75.6562 55.8685C81.1936 55.8218 85.9514 59.4137 87.6374 64.4708C88.3361 66.5665 90.6015 67.699 92.6972 67.0003C94.7929 66.3016 95.9255 64.0363 95.2267 61.9406C92.4853 53.7176 84.7233 47.7918 75.5889 47.8687C69.8015 47.9175 64.6056 50.3661 60.9129 54.2568Z" fill="#E4E4E4"/>
<path d="M57.9547 53.7115L57.652 52.2424L57.652 52.2424L57.9547 53.7115ZM60.9129 54.2568L60.1061 55.5214C60.7118 55.9078 61.5063 55.8105 62.0009 55.2895L60.9129 54.2568ZM54.8441 58.4364L56.3133 58.1337L56.3133 58.1337L54.8441 58.4364ZM56.0566 64.3213L57.5257 64.0186L57.5257 64.0186L56.0566 64.3213ZM60.7814 67.4318L60.4788 65.9627L60.4788 65.9627L60.7814 67.4318ZM65.8996 66.3773L65.5969 64.9082L65.5969 64.9082L65.8996 66.3773ZM69.0102 61.6524L67.541 61.9551L67.541 61.9551L69.0102 61.6524ZM67.3385 59.1497L66.3251 58.0439C65.9869 58.3538 65.8091 58.8014 65.8425 59.2589C65.8759 59.7164 66.1168 60.1335 66.4964 60.391L67.3385 59.1497ZM75.6562 55.8685L75.6689 57.3684L75.6689 57.3684L75.6562 55.8685ZM87.6374 64.4708L89.0604 63.9964L89.0604 63.9964L87.6374 64.4708ZM92.6972 67.0003L92.2228 65.5773L92.2228 65.5773L92.6972 67.0003ZM95.2267 61.9406L93.8037 62.415L93.8037 62.415L95.2267 61.9406ZM75.5889 47.8687L75.5763 46.3688L75.5763 46.3688L75.5889 47.8687ZM58.2574 55.1807C58.9213 55.0439 59.5751 55.1827 60.1061 55.5214L61.7196 52.9923C60.557 52.2506 59.111 51.9418 57.652 52.2424L58.2574 55.1807ZM56.3133 58.1337C56.0346 56.7814 56.905 55.4593 58.2574 55.1807L57.652 52.2424C54.6769 52.8553 52.762 55.764 53.375 58.7391L56.3133 58.1337ZM57.5257 64.0186L56.3133 58.1337L53.375 58.7391L54.5874 64.6239L57.5257 64.0186ZM60.4788 65.9627C59.1264 66.2413 57.8043 65.3709 57.5257 64.0186L54.5874 64.6239C55.2004 67.599 58.109 69.5139 61.0841 68.901L60.4788 65.9627ZM65.5969 64.9082L60.4788 65.9627L61.0841 68.901L66.2023 67.8465L65.5969 64.9082ZM67.541 61.9551C67.8197 63.3074 66.9493 64.6296 65.5969 64.9082L66.2023 67.8465C69.1774 67.2335 71.0923 64.3248 70.4793 61.3498L67.541 61.9551ZM66.4964 60.391C67.0179 60.7448 67.4042 61.2908 67.541 61.9551L70.4793 61.3498C70.1786 59.8899 69.3225 58.6832 68.1807 57.9084L66.4964 60.391ZM75.6436 54.3685C72.0599 54.3987 68.7898 55.7851 66.3251 58.0439L68.352 60.2556C70.2926 58.4771 72.8572 57.3921 75.6689 57.3684L75.6436 54.3685ZM89.0604 63.9964C87.1761 58.3444 81.8541 54.3162 75.6436 54.3685L75.6689 57.3684C80.5331 57.3275 84.7268 60.4831 86.2144 64.9452L89.0604 63.9964ZM92.2228 65.5773C90.9129 66.014 89.4971 65.3062 89.0604 63.9964L86.2144 64.9452C87.1751 67.8268 90.29 69.384 93.1716 68.4233L92.2228 65.5773ZM93.8037 62.415C94.2404 63.7248 93.5326 65.1406 92.2228 65.5773L93.1716 68.4233C96.0532 67.4626 97.6105 64.3478 96.6497 61.4661L93.8037 62.415ZM75.6015 49.3687C84.0607 49.2975 91.2599 54.7848 93.8037 62.415L96.6497 61.4661C93.7106 52.6503 85.3859 46.2862 75.5763 46.3688L75.6015 49.3687ZM62.0009 55.2895C65.4262 51.6805 70.2394 49.4138 75.6015 49.3687L75.5763 46.3688C69.3637 46.4211 63.785 49.0517 59.8249 53.2242L62.0009 55.2895Z" fill="#308BDC"/>
</svg>
