<svg width="100" height="100" viewBox="0 0 100 100" fill="none" xmlns="http://www.w3.org/2000/svg">
<path fill-rule="evenodd" clip-rule="evenodd" d="M47.4467 17.1219C48.3281 17.4874 49.0814 18.106 49.6113 18.8995C50.1411 19.693 50.4238 20.6259 50.4236 21.5801V79.4782C50.4234 80.4323 50.1403 81.365 49.6101 82.1582C49.08 82.9515 48.3265 83.5697 47.445 83.9348C46.5635 84.2999 45.5936 84.3955 44.6578 84.2094C43.722 84.0233 42.8624 83.5639 42.1876 82.8894L24.3019 65.0037H11.8248C10.5452 65.0037 9.318 64.4953 8.41316 63.5905C7.50833 62.6857 7 61.4585 7 60.1788V40.8794C7 39.5998 7.50833 38.3726 8.41316 37.4678C9.318 36.5629 10.5452 36.0546 11.8248 36.0546H24.3019L42.1876 18.1689C42.8623 17.4937 43.7221 17.0339 44.6583 16.8475C45.5944 16.6611 46.5648 16.7566 47.4467 17.1219ZM72.8929 16.4126C73.7977 15.5081 75.0247 15 76.3041 15C77.5834 15 78.8104 15.5081 79.7152 16.4126C84.2015 20.8884 87.7594 26.2064 90.1846 32.0611C92.6098 37.9158 93.8545 44.192 93.8472 50.5291C93.8545 56.8663 92.6098 63.1424 90.1846 68.9971C87.7594 74.8519 84.2015 80.1698 79.7152 84.6456C78.8052 85.5245 77.5865 86.0108 76.3214 85.9998C75.0564 85.9888 73.8462 85.4814 72.9517 84.5868C72.0571 83.6923 71.5497 82.4821 71.5387 81.2171C71.5277 79.952 72.014 78.7333 72.8929 77.8233C76.4833 74.2435 79.3304 69.9892 81.2705 65.305C83.2106 60.6208 84.2053 55.5992 84.1975 50.5291C84.2056 45.459 83.211 40.4374 81.2709 35.7531C79.3308 31.0689 76.4835 26.8146 72.8929 23.235C71.9884 22.3302 71.4803 21.1032 71.4803 19.8238C71.4803 18.5444 71.9884 17.3174 72.8929 16.4126ZM59.2434 30.0573C59.6915 29.6087 60.2236 29.2528 60.8094 29.01C61.3951 28.7672 62.0229 28.6422 62.657 28.6422C63.2911 28.6422 63.9189 28.7672 64.5046 29.01C65.0904 29.2528 65.6225 29.6087 66.0706 30.0573C68.7623 32.7431 70.8968 35.9343 72.3516 39.4475C73.8064 42.9607 74.5528 46.7267 74.5478 50.5291C74.5525 54.3316 73.806 58.0975 72.3512 61.6106C70.8965 65.1238 68.7621 68.315 66.0706 71.001C65.1652 71.9063 63.9373 72.4149 62.657 72.4149C61.3767 72.4149 60.1488 71.9063 59.2434 71.001C58.3381 70.0956 57.8295 68.8677 57.8295 67.5874C57.8295 66.307 58.3381 65.0791 59.2434 64.1738C61.0391 62.3846 62.4631 60.258 63.4336 57.9163C64.4041 55.5745 64.9018 53.064 64.8981 50.5291C64.9021 47.9942 64.4045 45.4836 63.434 43.1419C62.4635 40.8001 61.0393 38.6735 59.2434 36.8845C58.7948 36.4364 58.4389 35.9042 58.1961 35.3185C57.9533 34.7328 57.8284 34.1049 57.8284 33.4709C57.8284 32.8368 57.9533 32.209 58.1961 31.6233C58.4389 31.0375 58.7948 30.5054 59.2434 30.0573Z" fill="#E4E4E4"/>
</svg>
