<svg width="100" height="100" viewBox="0 0 100 100" fill="none" xmlns="http://www.w3.org/2000/svg">
<path fill-rule="evenodd" clip-rule="evenodd" d="M49.8702 15.386C50.8045 15.7702 51.6029 16.4204 52.1645 17.2545C52.7262 18.0886 53.0258 19.0691 53.0256 20.0721V80.9296C53.0253 81.9325 52.7253 82.9128 52.1634 83.7466C51.6014 84.5804 50.8028 85.2303 49.8685 85.614C48.9342 85.9978 47.9061 86.0982 46.9142 85.9026C45.9224 85.707 45.0112 85.2242 44.296 84.5151L25.3386 65.7152H12.114C10.7576 65.7152 9.45689 65.1809 8.49784 64.2298C7.53879 63.2787 7 61.9888 7 60.6438V40.3579C7 39.0129 7.53879 37.7229 8.49784 36.7718C9.45689 35.8208 10.7576 35.2864 12.114 35.2864H25.3386L44.296 16.4865C45.0112 15.7769 45.9225 15.2935 46.9148 15.0976C47.907 14.9017 48.9355 15.0021 49.8702 15.386ZM64.7518 36.7724C65.7109 35.8216 67.0114 35.2875 68.3674 35.2875C69.7234 35.2875 71.024 35.8216 71.983 36.7724L78.5953 43.3298L85.2076 36.7724C85.6794 36.288 86.2437 35.9016 86.8676 35.6359C87.4915 35.3701 88.1626 35.2302 88.8416 35.2243C89.5206 35.2185 90.194 35.3468 90.8225 35.6018C91.451 35.8568 92.022 36.2333 92.5022 36.7095C92.9823 37.1857 93.362 37.7519 93.6192 38.3752C93.8763 38.9985 94.0057 39.6663 93.9998 40.3397C93.9939 41.013 93.8528 41.6785 93.5848 42.2973C93.3168 42.916 92.9272 43.4756 92.4388 43.9434L85.8264 50.5008L92.4388 57.0582C93.3703 58.0147 93.8858 59.2958 93.8741 60.6255C93.8625 61.9552 93.3246 63.2272 92.3765 64.1675C91.4283 65.1078 90.1457 65.6412 88.8048 65.6527C87.4639 65.6643 86.1721 65.1531 85.2076 64.2293L78.5953 57.6719L71.983 64.2293C71.0185 65.1531 69.7267 65.6643 68.3858 65.6527C67.0449 65.6412 65.7623 65.1078 64.8141 64.1675C63.866 63.2272 63.3281 61.9552 63.3165 60.6255C63.3048 59.2958 63.8203 58.0147 64.7518 57.0582L71.3642 50.5008L64.7518 43.9434C63.7931 42.9924 63.2545 41.7027 63.2545 40.3579C63.2545 39.0131 63.7931 37.7234 64.7518 36.7724Z" fill="#E4E4E4"/>
</svg>
